<svg xmlns="http://www.w3.org/2000/svg" viewBox="0 0 50 50"><defs><style>.cls-1{fill:#786d01;}.cls-2{fill:#bcaa01;}.cls-3{fill:#2e4052;}</style></defs><title>logo</title><g id="v-shadow"><polyline class="cls-1" points="9.38 6.44 22 25 26 28 30.12 21.88 32 30 26 37 18 31 18 24 9.38 6.44"/></g><g id="v"><path class="cls-2" d="M45,0,28.71,24a23.93,23.93,0,0,1,1.19,3.71C30.56,30.52,27.71,33,25,33s-5.56-2.48-4.9-5.33A23.93,23.93,0,0,1,21.29,24L5,0H0L25,50,50,0Z"/></g><g id="water-drop"><path class="cls-3" d="M28.92,27.33a4,4,0,1,1-7.84,0A33.53,33.53,0,0,1,25,18,33.53,33.53,0,0,1,28.92,27.33Z"/></g></svg>