<?xml version="1.0" encoding="utf-8"?>
<!-- Generator: Adobe Illustrator 22.0.1, SVG Export Plug-In . SVG Version: 6.00 Build 0)  -->
<svg version="1.1" xmlns="http://www.w3.org/2000/svg" xmlns:xlink="http://www.w3.org/1999/xlink" x="0px" y="0px"
	 viewBox="0 0 50 50" style="enable-background:new 0 0 50 50;" xml:space="preserve">
<style type="text/css">
	.st0{display:none;}
	.st1{display:inline;fill:#786D01;}
	.st2{display:inline;}
	.st3{fill:#BCAA01;}
	.st4{display:inline;fill:#2E4052;}
	.st5{fill:#2E4052;}
	.st6{fill:#786D01;}
</style>
<g id="v-shadow" class="st0">
	<polyline class="st1" points="9.4,6.4 22,25 26,28 30.1,21.9 32,30 26,37 18,31 18,24 9.4,6.4 	"/>
</g>
<g id="v" class="st0">
	<g class="st2">
		<path class="st3" d="M45,0L28.7,24c0.5,1.2,0.9,2.4,1.2,3.7c0.7,2.9-2.2,5.3-4.9,5.3s-5.6-2.5-4.9-5.3c0.3-1.3,0.7-2.5,1.2-3.7
			L5,0H0l25,50L50,0H45z"/>
	</g>
</g>
<g id="water-drop" class="st0">
	<path class="st4" d="M28.9,27.3c0.5,2.5-1.8,4.7-3.9,4.7s-4.4-2.2-3.9-4.7c1-4.7,3.9-9.3,3.9-9.3S27.9,22.7,28.9,27.3z"/>
</g>
<g id="water-drip">
	<path class="st5" d="M38,34c1.9,8.9-4.3,16-12,16s-15.9-7.7-14-16.7C15.5,16.7,26,0,26,0s0.6,11.3,6,22C35,28,37,29.4,38,34z"/>
</g>
<g id="gold">
	<ellipse class="st6" cx="32.4" cy="39" rx="3.6" ry="6"/>
	<ellipse class="st6" cx="35.5" cy="32.5" rx="0.5" ry="1.5"/>
</g>
<g id="bright_gold">
	<g>
		<ellipse class="st3" cx="34.2" cy="38.4" rx="0.6" ry="1.8"/>
	</g>
</g>
</svg>
